<?xml version="1.0" standalone="no"?>
<!DOCTYPE svg PUBLIC "-//W3C//DTD SVG 20010904//EN"
 "http://www.w3.org/TR/2001/REC-SVG-20010904/DTD/svg10.dtd">
<svg version="1.0" xmlns="http://www.w3.org/2000/svg"
 width="334.000000pt" height="136.000000pt" viewBox="0 0 334.000000 136.000000"
 preserveAspectRatio="xMidYMid meet">

<g transform="translate(0.000000,136.000000) scale(0.100000,-0.100000)"
fill="#ffffff" stroke="none">
<path d="M1939 1100 c-44 -23 -55 -37 -62 -75 -3 -16 -17 -64 -32 -105 -42
-121 -60 -248 -46 -333 28 -170 101 -247 220 -233 81 10 145 58 138 103 -2 12
0 24 5 25 14 5 36 103 49 213 19 165 0 310 -50 369 -44 52 -156 71 -222 36z
m151 -95 c23 -46 25 -60 24 -185 -2 -189 -37 -334 -93 -385 -17 -15 -26 -17
-39 -9 -26 16 -61 72 -74 118 -16 56 -16 229 0 299 12 50 17 58 35 55 19 -3
24 7 47 80 23 76 27 82 50 80 19 -2 31 -15 50 -53z m-216 -81 c-14 -44 -32
-106 -39 -139 -8 -33 -14 -49 -14 -35 -1 37 16 105 45 188 35 98 42 86 8 -14z
m83 14 c-3 -8 -6 -5 -6 6 -1 11 2 17 5 13 3 -3 4 -12 1 -19z m163 -360 c-6
-35 -18 -74 -26 -88 -17 -32 -17 -22 0 26 7 22 16 61 20 87 4 27 10 46 13 43
3 -3 0 -34 -7 -68z"/>
<path d="M1462 917 c-29 -31 -28 -85 2 -145 23 -44 23 -49 7 -68 -9 -12 -23
-32 -31 -44 -8 -12 -20 -28 -27 -35 -7 -7 -10 -15 -7 -18 4 -3 -1 -16 -10 -29
-21 -29 -20 -51 2 -78 25 -31 65 -21 143 37 34 24 64 41 68 36 4 -4 19 -25 35
-45 15 -21 34 -38 42 -38 8 0 12 4 9 10 -3 6 1 7 9 4 27 -10 20 50 -9 84 -30
35 -30 40 -7 59 15 13 14 14 -14 9 -32 -5 -44 4 -108 82 -19 22 -19 23 1 45
49 54 53 83 17 126 -33 40 -89 43 -122 8z m100 -39 c7 -20 5 -37 -8 -65 l-18
-37 -19 43 c-23 53 -16 94 15 89 13 -2 25 -14 30 -30z m-18 -228 c38 -50 38
-51 20 -72 -27 -30 -104 -78 -126 -78 -31 0 -38 39 -17 94 16 44 63 106 79
106 3 0 23 -23 44 -50z"/>
<path d="M320 886 c0 -7 9 -35 19 -62 69 -177 71 -183 71 -264 l0 -80 50 0 50
0 0 75 c0 66 6 90 50 203 28 71 50 131 50 135 0 4 -20 7 -45 7 -51 0 -50 1
-83 -110 -21 -71 -20 -71 -52 38 l-21 72 -44 0 c-31 0 -45 -4 -45 -14z"/>
<path d="M710 896 c0 -3 -18 -91 -40 -197 -22 -106 -40 -199 -40 -206 0 -10
13 -13 47 -11 47 3 48 4 54 41 7 46 7 46 49 49 34 3 35 2 43 -44 l9 -48 49 0
49 0 -7 33 c-4 17 -23 111 -42 207 l-36 175 -68 3 c-37 2 -67 1 -67 -2z m86
-185 c6 -57 4 -71 -7 -71 -34 1 -38 13 -26 93 13 90 24 83 33 -22z"/>
<path d="M1000 690 l0 -211 43 3 42 3 5 122 5 122 39 -125 40 -125 50 3 51 3
0 205 0 205 -42 3 -43 3 -1 -133 -1 -133 -43 130 -43 130 -51 3 -51 3 0 -211z"/>
<path d="M2759 820 c-20 -16 -46 -49 -57 -73 -27 -57 -170 -187 -183 -166 -5
8 -9 19 -9 24 0 6 -5 27 -11 47 -13 49 -49 61 -84 28 l-23 -22 -5 29 c-3 15
-8 45 -12 65 -6 41 -41 71 -55 48 -6 -9 -9 -9 -12 1 -3 10 -9 6 -18 -11 -10
-18 -14 -66 -15 -166 0 -119 3 -143 17 -157 15 -16 21 -16 52 -3 29 12 35 20
41 58 8 46 53 148 66 148 5 0 13 -19 20 -42 30 -113 51 -117 144 -27 l63 60 7
-31 c9 -39 46 -65 82 -55 35 8 105 60 163 119 54 56 39 62 -17 7 -44 -43 -135
-101 -159 -101 -20 0 -27 24 -20 65 5 27 13 36 34 41 44 11 80 42 93 81 10 32
9 38 -7 50 -28 20 -56 16 -95 -17z m2 -17 c-14 -24 -55 -72 -45 -53 12 24 45
70 50 70 3 0 0 -8 -5 -17z m83 2 c6 -16 -50 -75 -71 -75 -17 0 -16 5 2 40 22
43 58 62 69 35z"/>
</g>
</svg>
