<?xml version="1.0" standalone="no"?>
<!DOCTYPE svg PUBLIC "-//W3C//DTD SVG 20010904//EN"
 "http://www.w3.org/TR/2001/REC-SVG-20010904/DTD/svg10.dtd">
<svg version="1.0" xmlns="http://www.w3.org/2000/svg"
 width="500.000000pt" height="500.000000pt" viewBox="0 0 500.000000 500.000000"
 preserveAspectRatio="xMidYMid meet">
<metadata>
Created by potrace 1.14, written by Peter Selinger 2001-2017
</metadata>
<g transform="translate(0.000000,500.000000) scale(0.100000,-0.100000)"
fill="#000000" stroke="none">
<path d="M3393 4020 c-15 -3 -47 -6 -70 -5 -23 0 -39 -3 -35 -7 4 -4 58 -9
120 -12 124 -6 172 -21 203 -66 15 -21 19 -56 23 -199 3 -95 8 -176 11 -179 3
-3 5 1 6 9 12 160 12 342 1 371 -27 68 -148 109 -259 88z"/>
<path d="M1491 3931 c-49 -13 -64 -50 -64 -163 -1 -132 7 -171 44 -213 39 -44
84 -58 189 -60 47 0 90 -4 96 -7 6 -4 11 -26 12 -50 5 -114 44 -319 88 -453
32 -97 59 -136 38 -53 -8 29 -16 64 -19 78 -2 14 -7 37 -10 52 -6 24 3 36 63
97 l70 70 274 -85 c150 -46 279 -84 286 -84 13 0 15 -11 13 -80 -2 -118 -54
-233 -144 -322 -61 -60 -82 -71 -83 -40 -3 128 -99 532 -126 532 -5 0 -7 -8
-4 -17 3 -10 15 -61 26 -113 11 -52 27 -126 36 -165 8 -38 17 -82 20 -96 2
-14 13 -59 23 -101 l18 -76 -26 -12 c-141 -65 -284 -71 -415 -16 l-38 16 83
65 c125 99 317 290 304 303 -2 2 -38 -26 -80 -63 l-75 -68 -238 83 c-130 46
-241 87 -246 91 -6 5 -11 16 -12 26 -7 49 -17 65 -45 77 -41 17 -75 9 -100
-23 -19 -23 -21 -35 -16 -106 10 -139 67 -284 150 -381 74 -86 199 -163 322
-200 80 -24 78 -23 168 -28 185 -9 382 82 514 238 28 34 62 74 75 89 l23 29
34 -47 c79 -110 198 -203 319 -249 96 -37 158 -47 330 -52 l153 -5 29 29 c25
26 28 33 21 64 -5 20 -11 40 -15 46 -12 20 -63 29 -176 30 -123 1 -157 5 -233
27 -139 41 -279 159 -340 286 -53 110 -61 172 -62 434 l0 230 360 1 c423 2
405 1 428 18 44 34 33 126 -17 142 -11 4 -187 8 -391 9 -203 1 -373 3 -377 4
-3 0 -8 51 -10 112 -3 109 -4 111 -32 134 -16 13 -38 22 -48 20 -82 -16 -88
-35 -88 -280 l0 -196 -69 56 c-37 30 -71 55 -75 55 -3 0 -25 12 -49 27 -23 14
-44 26 -47 25 -3 -1 -25 5 -50 13 -76 25 -115 28 -405 28 l-281 0 1 99 c0 55
-4 111 -11 127 -13 32 -56 51 -93 42z m698 -446 l33 -7 -38 -31 c-72 -58 -219
-206 -269 -271 -27 -36 -53 -65 -56 -66 -4 0 -9 15 -12 33 -3 17 -16 77 -28
132 -12 55 -27 127 -33 161 l-12 60 190 -1 c105 -1 206 -5 225 -10z m171 -75
c60 -39 101 -83 145 -155 47 -78 80 -194 52 -181 -142 64 -341 127 -467 147
-41 7 -76 13 -78 14 -1 1 50 54 115 118 l117 116 35 -15 c20 -8 56 -28 81 -44z
m-698 -484 c75 -34 249 -90 343 -111 70 -15 77 -19 61 -31 -19 -13 -71 -60
-168 -152 l-58 -53 -30 21 c-104 74 -185 200 -205 318 -3 17 -3 32 0 32 2 0
28 -11 57 -24z"/>
<path d="M1269 2794 c0 -10 -2 -36 -5 -56 -10 -78 -10 -264 0 -293 24 -74 89
-105 211 -100 44 1 95 3 114 4 70 2 18 14 -81 18 -119 4 -184 28 -207 77 -9
19 -14 81 -16 193 -2 91 -6 167 -9 171 -3 3 -6 -3 -7 -14z"/>
<path d="M2897 1972 c-9 -2 -17 -7 -17 -10 1 -22 23 -28 103 -27 l87 1 0 -298
c0 -277 1 -298 18 -298 16 0 17 20 16 288 0 158 1 292 3 298 3 7 33 10 81 9
87 -2 102 1 102 21 0 10 -13 14 -40 15 -221 3 -339 3 -353 1z"/>
<path d="M3438 1972 l-48 -3 0 -315 0 -314 175 0 c143 0 175 3 175 14 0 21
-13 22 -167 21 l-143 -1 0 133 0 133 141 0 c128 0 140 2 137 18 -3 15 -18 17
-123 19 -66 0 -128 2 -137 2 -16 1 -18 14 -18 129 l0 128 143 -1 c156 -1 168
0 161 20 -4 10 -36 15 -127 17 -67 2 -143 2 -169 0z"/>
<path d="M4440 1973 c-14 -3 -16 -43 -16 -318 0 -296 1 -315 18 -315 12 0 18
8 19 23 0 12 1 138 1 280 0 142 1 257 3 255 2 -2 53 -103 115 -226 84 -168
116 -222 129 -220 10 2 58 86 126 220 61 119 112 219 115 221 3 3 4 -120 4
-274 l-1 -279 21 0 22 0 -1 313 0 312 -25 3 c-24 3 -33 -12 -140 -227 -63
-127 -117 -231 -120 -231 -3 0 -57 100 -119 223 -62 122 -118 227 -124 233 -7
6 -19 9 -27 7z"/>
<path d="M14 1959 c-9 -15 -9 -594 1 -608 11 -18 370 -14 415 5 133 56 162
244 52 336 -29 24 -31 29 -21 58 26 73 -18 166 -95 201 -34 15 -66 19 -193 19
-100 0 -154 -4 -159 -11z m287 -128 c3 0 11 -12 17 -25 19 -42 -4 -59 -82 -60
-37 -1 -71 4 -75 9 -6 8 -7 51 -2 75 1 5 121 5 142 1z m66 -218 c22 -9 42 -56
36 -87 -8 -40 -44 -52 -149 -49 -49 1 -91 2 -94 2 -4 1 -5 129 -1 139 2 4 194
0 208 -5z"/>
<path d="M755 1958 c-29 -79 -185 -570 -187 -589 -3 -23 0 -24 51 -27 84 -5
96 1 111 53 l13 46 111 -3 110 -3 10 -40 c5 -22 14 -43 20 -47 21 -14 136 -9
142 6 4 11 -90 314 -170 546 l-23 65 -92 3 c-67 2 -93 -1 -96 -10z m159 -379
c-5 -10 -129 -3 -128 7 2 11 53 183 61 204 3 8 20 -34 38 -95 18 -60 31 -113
29 -116z"/>
<path d="M1205 1957 c-3 -7 -4 -147 -3 -312 l3 -300 156 -2 c205 -2 260 14
337 102 88 100 102 266 32 379 -34 56 -108 114 -163 131 -66 20 -355 22 -362
2z m367 -159 c91 -69 81 -239 -16 -294 -31 -18 -53 -21 -124 -20 l-87 1 0 173
0 174 96 -4 c86 -3 99 -6 131 -30z"/>
<path d="M1859 1953 c-4 -15 -3 -496 0 -586 l1 -28 68 3 67 3 5 99 c5 93 6 99
28 102 24 4 25 3 124 -121 l64 -80 74 0 c53 0 75 4 75 12 0 7 -36 58 -79 114
l-79 101 32 25 c93 73 99 222 13 309 -53 53 -94 64 -248 64 -127 0 -142 -2
-145 -17z m267 -126 c29 -10 48 -50 41 -87 -10 -50 -31 -63 -103 -65 l-64 -2
0 77 c0 42 2 79 5 81 7 8 97 4 121 -4z"/>
<path d="M2327 1964 c-4 -4 4 -26 17 -48 13 -23 33 -57 43 -76 11 -19 44 -75
73 -125 l54 -90 1 -132 c0 -80 5 -137 11 -143 6 -6 37 -10 70 -8 l59 3 5 140
5 140 93 161 c50 89 92 167 92 173 0 8 -24 11 -77 9 l-76 -3 -55 -103 -55
-104 -52 104 -53 103 -74 3 c-41 1 -77 0 -81 -4z"/>
<path d="M4025 1934 c-8 -20 -15 -39 -15 -41 0 -3 -6 -19 -14 -36 -8 -18 -53
-133 -101 -257 -49 -124 -92 -231 -98 -237 -6 -9 -4 -15 8 -19 23 -9 29 0 63
86 l30 75 162 0 162 0 32 -80 c22 -54 38 -81 50 -83 25 -5 26 -6 -108 333 -94
242 -117 291 -134 293 -16 3 -25 -5 -37 -34z m148 -299 l34 -90 -73 -3 c-41
-2 -107 -2 -148 0 l-74 3 68 174 c38 95 72 181 75 190 4 10 20 -19 45 -84 21
-55 53 -140 73 -190z"/>
<path d="M12 1151 c-12 -7 -13 -190 -1 -197 5 -3 9 15 9 39 0 45 0 45 33 42
34 -4 57 8 74 40 13 23 -11 74 -37 76 -8 1 -27 2 -42 3 -15 2 -31 0 -36 -3z
m90 -28 c36 -32 9 -73 -48 -73 -34 0 -34 0 -34 45 0 44 1 45 32 45 17 0 40 -7
50 -17z"/>
<path d="M219 1140 c-4 -55 -4 -168 1 -180 3 -8 7 5 10 29 7 62 31 63 87 3 48
-52 60 -46 13 7 -25 28 -28 36 -16 45 40 32 36 88 -8 103 -38 13 -86 10 -87
-7z m96 -20 c15 -17 16 -24 7 -45 -10 -21 -19 -25 -52 -25 l-40 0 2 45 c1 44
2 45 33 45 19 0 39 -8 50 -20z"/>
<path d="M470 1139 c-58 -36 -63 -114 -10 -161 40 -37 87 -37 129 -2 98 82 -9
229 -119 163z m109 -16 c26 -22 41 -71 30 -101 -12 -31 -67 -63 -99 -56 -66
15 -93 102 -45 149 29 30 83 33 114 8z"/>
<path d="M724 1153 c-9 -3 -8 -165 0 -189 6 -17 84 -15 117 2 35 17 49 43 49
84 0 38 -27 88 -53 96 -21 7 -99 12 -113 7z m103 -19 c12 -3 29 -21 37 -39 35
-74 -13 -137 -97 -127 l-34 4 1 84 1 84 35 0 c19 0 45 -3 57 -6z"/>
<path d="M1251 1144 c-63 -27 -75 -118 -21 -166 40 -37 87 -37 130 -2 17 15
28 29 25 32 -3 3 -16 -5 -30 -18 -36 -33 -91 -31 -122 5 -73 84 45 198 124
119 14 -14 28 -23 31 -19 11 11 -43 54 -74 58 -17 3 -45 -1 -63 -9z"/>
<path d="M1450 1148 c0 -4 11 -8 24 -8 29 0 33 -14 31 -108 -1 -40 2 -75 6
-78 5 -3 9 38 9 90 l0 96 32 0 c17 0 28 3 24 7 -10 10 -126 11 -126 1z"/>
<path d="M1659 1154 c-4 -54 -2 -189 3 -197 9 -14 10 6 9 117 0 43 -3 81 -6
84 -3 3 -5 1 -6 -4z"/>
<path d="M1824 1150 c-75 -29 -86 -139 -19 -180 46 -28 88 -26 125 8 32 29 42
71 28 114 -16 46 -87 77 -134 58z m95 -31 c48 -45 38 -113 -21 -142 -35 -17
-40 -17 -71 -2 -52 24 -66 71 -39 122 27 49 90 60 131 22z"/>
<path d="M2168 1143 c-3 -10 -4 -48 -2 -85 1 -38 1 -68 -1 -68 -1 0 -24 36
-51 80 -26 44 -52 80 -56 80 -12 0 -10 -188 2 -195 6 -4 10 24 10 76 l0 83 30
-47 c17 -26 30 -51 30 -55 0 -4 11 -20 25 -37 l24 -30 1 108 c0 104 -3 126
-12 90z"/>
<path d="M2859 1133 c-3 -92 -1 -161 5 -171 9 -15 36 -16 36 -2 0 6 -6 10 -14
10 -10 0 -13 19 -12 85 l1 85 37 0 c55 0 86 -18 99 -57 20 -60 -15 -113 -75
-113 -14 0 -26 -4 -26 -10 0 -15 37 -12 70 5 52 27 67 84 37 142 -18 33 -47
45 -119 48 -33 1 -38 -2 -39 -22z"/>
<path d="M3273 1141 c-64 -40 -72 -104 -19 -157 26 -26 42 -34 70 -34 44 0 93
41 100 84 15 86 -78 152 -151 107z m119 -34 c43 -56 3 -142 -66 -140 -41 1
-61 14 -80 52 -31 62 32 139 97 120 18 -5 40 -19 49 -32z"/>
<path d="M3729 1154 c-5 -46 -2 -197 4 -201 4 -2 7 13 8 34 2 82 -1 166 -6
171 -3 3 -5 1 -6 -4z"/>
<path d="M3872 1153 c-25 -5 -48 -43 -39 -66 3 -8 28 -25 56 -38 40 -17 51
-28 51 -45 0 -44 -61 -53 -92 -13 -13 15 -18 17 -18 7 0 -44 82 -64 115 -28
29 32 13 66 -45 91 -39 17 -50 26 -50 44 0 40 59 49 84 13 13 -18 16 -19 16
-6 0 15 -37 50 -50 47 -3 -1 -15 -4 -28 -6z"/>
<path d="M4273 1144 c-2 -6 -3 -51 -1 -100 l3 -89 40 -2 c61 -2 77 10 20 16
-52 6 -51 4 -46 67 1 11 10 15 35 13 19 -2 38 0 42 4 8 7 -15 11 -53 7 -20 -1
-23 3 -23 39 l0 41 47 0 c25 0 43 3 39 7 -11 12 -98 9 -103 -3z"/>
<path d="M4848 1145 c-2 -5 -3 -50 -3 -100 l0 -90 58 -2 c37 -1 55 2 51 8 -3
6 -20 10 -38 9 -54 -3 -56 -2 -56 40 l0 40 45 0 c25 0 45 3 45 8 0 4 -19 7
-42 7 -43 0 -43 0 -45 38 l-1 37 46 0 c25 0 42 3 38 7 -11 11 -95 10 -98 -2z"/>
<path d="M974 1064 c3 -95 14 -114 68 -114 51 0 68 30 68 120 0 44 -4 80 -8
80 -4 0 -8 -36 -8 -80 0 -47 -4 -84 -11 -91 -13 -13 -65 -15 -83 -4 -5 3 -10
44 -10 91 0 46 -4 84 -10 84 -5 0 -8 -36 -6 -86z"/>
<path d="M2433 1068 c-17 -46 -34 -92 -38 -103 -6 -19 -6 -20 9 -1 8 10 17 23
18 28 5 14 89 17 100 4 5 -6 16 -20 24 -31 18 -24 18 -23 -26 93 -19 51 -39
92 -45 92 -6 0 -25 -37 -42 -82z m65 5 l20 -53 -44 0 -44 0 20 53 c11 28 20
54 20 56 0 11 10 -9 28 -56z"/>
<path d="M2629 1088 c-2 -86 0 -100 18 -120 21 -24 75 -23 96 0 13 14 17 38
17 100 0 45 -3 82 -8 82 -4 0 -6 -29 -5 -65 4 -103 -22 -139 -79 -111 -21 11
-23 18 -23 94 0 95 -14 113 -16 20z"/>
<path d="M3119 1145 c0 -3 -1 -21 -1 -40 0 -114 3 -158 9 -151 10 9 11 196 1
196 -4 0 -8 -2 -9 -5z"/>
<path d="M3515 1064 c32 -85 49 -113 61 -101 4 3 14 30 24 59 10 29 25 70 34
91 9 20 12 37 7 37 -5 0 -24 -38 -42 -85 -17 -47 -33 -85 -35 -85 -1 0 -8 17
-14 38 -20 61 -52 132 -60 132 -4 0 7 -39 25 -86z"/>
<path d="M4039 1133 c-1 -10 0 -47 0 -83 2 -75 18 -100 66 -100 51 0 65 25 68
118 1 45 -1 82 -5 82 -5 0 -8 -36 -8 -79 0 -70 -3 -82 -21 -95 -22 -15 -52
-14 -73 3 -8 7 -12 38 -11 91 0 44 -3 80 -7 80 -4 0 -8 -8 -9 -17z"/>
<path d="M4467 1058 c0 -51 2 -96 2 -99 2 -11 101 -9 101 1 0 6 -20 10 -45 10
l-46 0 3 90 c2 55 -1 90 -7 90 -6 0 -9 -36 -8 -92z"/>
<path d="M4659 1148 c-1 -4 -1 -170 0 -185 1 -13 99 -14 107 -1 3 4 -17 8 -45
8 l-50 0 2 90 c1 50 -1 90 -5 90 -5 0 -8 -1 -9 -2z"/>
</g>
</svg>
